    <?xml version="1.0" encoding="UTF-8"?>
    <svg version="1.1" xmlns="http://www.w3.org/2000/svg" width="1000" height="1000">
    <path d="M0 0 C31.02 0 62.04 0 94 0 C94 41.58 94 83.16 94 126 C140.86 126 187.72 126 236 126 C236 160.32 236 194.64 236 230 C189.14 230 142.28 230 94 230 C94 336.26 94 442.52 94 552 C62.98 552 31.96 552 0 552 C0 445.74 0 339.48 0 230 C-44.88 230 -89.76 230 -136 230 C-136 195.68 -136 161.36 -136 126 C-91.12 126 -46.24 126 0 126 C0 84.42 0 42.84 0 0 Z " fill="#020066" transform="translate(449,224)"/>
    <path d="M0 0 C41.58 0 83.16 0 126 0 C130.95 9.24 135.9 18.48 141 28 C145.51425989 36.29193899 145.51425989 36.29193899 150.0390625 44.578125 C153.76438618 51.39170967 157.45687819 58.22301828 161.15161133 65.05322266 C164.21009506 70.70434343 167.28144956 76.34809487 170.3671875 81.984375 C175.99593916 92.26825642 181.53055955 102.59977702 187.03717041 112.94934082 C192.32320297 122.88215028 197.67084425 132.77885915 203.07421875 142.6484375 C206.23489919 148.42216103 209.36807486 154.2106417 212.5 160 C216.74272152 167.83729343 220.98829677 175.67300822 225.25 183.5 C225.74306641 184.40580811 226.23613281 185.31161621 226.74414062 186.24487305 C229.39860459 191.10828101 232.08756543 195.94875088 234.83544922 200.76000977 C235.94803266 202.72090892 237.03436903 204.69443119 238.1171875 206.671875 C239.8764636 209.91974948 239.8764636 209.91974948 241.7578125 212.453125 C243.32247559 214.86717663 243.9762481 216.11176912 244 219 C242.01793623 223.73461993 239.36038737 227.7968504 236.41601562 231.98535156 C235.03039256 233.95675872 233.69046009 235.95240746 232.359375 237.9609375 C223.43486964 251.32059186 213.96797331 264.24403637 203 276 C201.8275575 277.3282573 200.66063783 278.66141541 199.5 280 C196.83134614 283.05873551 194.14301805 286.0987945 191.4375 289.125 C190.73496094 289.91132812 190.03242187 290.69765625 189.30859375 291.5078125 C188.54675781 292.33023437 187.78492188 293.15265625 187 294 C186.58056747 294.50506879 186.16113495 295.01013759 185.72899234 295.5305115 C183.00053052 298.61290031 181.57975318 299.87993815 177.43496895 300.73828697 C176.09253721 300.76323978 174.74924184 300.75569145 173.40701294 300.7215271 C172.66454819 300.72666321 171.92208344 300.73179932 171.15711975 300.73709106 C168.67172681 300.74699019 166.1887828 300.71394675 163.70361328 300.68115234 C161.89065567 300.67931361 160.07769376 300.68011652 158.26473808 300.68334389 C153.41448293 300.68469715 148.56511793 300.64995221 143.71507263 300.60768127 C139.1621524 300.57348235 134.60944741 300.5719011 130.05639648 300.56762695 C116.74581332 300.53615717 103.43539538 300.45239 90.125 300.375 C60.38375 300.25125 30.6425 300.1275 0 300 C0 201 0 102 0 0 Z " fill="#b59c5a" transform="translate(564,476)"/>
    <path d="M0 0 C49.83 0 99.66 0 151 0 C151 99 151 198 151 300 C138.79 300 126.58 300 114 300 C100.66047297 286.66047297 100.66047297 286.66047297 96.9453125 282.28125 C95.37931838 280.44482316 93.79007681 278.64080526 92.1796875 276.84375 C78.93738505 261.97344611 67.52119484 245.88431267 57 229 C56.62601074 228.40896484 56.25202148 227.81792969 55.86669922 227.20898438 C43.44759962 207.54772943 33.4654207 186.62783441 25 165 C24.67837891 164.1946582 24.35675781 163.38931641 24.02539062 162.55957031 C8.6451595 123.91223049 0.64784828 81.82727811 -0.55761719 40.31518555 C-0.62396382 38.09714083 -0.70235714 35.87973833 -0.78125 33.66210938 C-1.12110523 22.30194853 -0.57219546 11.44390927 0 0 Z " fill="#b59c5a" transform="translate(141,476)"/>
    <path d="M0 0 C37.95 0 75.9 0 115 0 C115 99 115 198 115 300 C77.05 300 39.1 300 0 300 C0 201 0 102 0 0 Z " fill="#b59c5a" transform="translate(313,476)"/>
    <path d="M0 0 C12.87 0 25.74 0 39 0 C53.51162791 14.51162791 53.51162791 14.51162791 59 21 C59.8559375 21.96679688 60.711875 22.93359375 61.59375 23.9296875 C74.50380554 38.57295709 85.69162213 54.44262934 96 71 C96.37930664 71.60166992 96.75861328 72.20333984 97.14941406 72.82324219 C124.70744861 116.6490152 151 177.16258235 151 230 C101.17 230 51.34 230 0 230 C0 154.1 0 78.2 0 0 Z " fill="#b59c5a" transform="translate(706,224)"/>
    <path d="M0 0 C47.85 0 95.7 0 145 0 C147.39054636 69.32584437 135.94356351 132.04123744 107 195 C106.01 195 105.02 195 104 195 C103.72961914 194.47905762 103.45923828 193.95811523 103.18066406 193.42138672 C94.43316752 176.58997154 85.48632072 159.87390244 76.125 143.375 C73.69729501 139.09464238 71.35353675 134.79497064 69.1875 130.375 C65.97192635 123.82051562 62.45493946 117.44088328 58.94604492 111.04052734 C54.92931119 103.71211508 50.955098 96.36184586 47 89 C42.69221126 80.98586516 38.36497788 72.98313248 34 65 C29.06536494 55.97389128 24.17621805 46.92391493 19.30981445 37.86083984 C16.31250514 32.28148343 13.30029542 26.71112231 10.2578125 21.15625 C9.35857056 19.51052002 9.35857056 19.51052002 8.44116211 17.83154297 C7.2972805 15.73997384 6.14982163 13.65035596 4.99829102 11.56298828 C4.23150024 10.15895752 4.23150024 10.15895752 3.44921875 8.7265625 C2.99893311 7.90752441 2.54864746 7.08848633 2.0847168 6.24462891 C1 4 1 4 0 0 Z " fill="#b59c5a" transform="translate(714,476)"/>
    <path d="M0 0 C0.89874816 0.00092179 1.79749632 0.00184359 2.72347927 0.00279331 C3.75138073 0.00141865 4.77928219 0.00004398 5.83833218 -0.00137234 C6.975527 0.00222294 8.11272182 0.00581821 9.2843771 0.00952244 C10.47445873 0.00937641 11.66454037 0.00923038 12.89068508 0.00907993 C16.16326569 0.00965889 19.43580402 0.01468801 22.70837617 0.02165389 C26.1250196 0.02788815 29.54166379 0.02849128 32.95831203 0.0296793 C39.43232563 0.0327924 45.90632242 0.0410055 52.3803286 0.05102879 C60.47130704 0.06328469 68.56228818 0.06877255 76.65327358 0.0742197 C91.09273981 0.08397093 105.53216935 0.1040012 119.97163296 0.12304783 C119.97163296 34.44304783 119.97163296 68.76304783 119.97163296 104.12304783 C70.80163296 104.12304783 21.63163296 104.12304783 -29.02836704 104.12304783 C-16.13533932 0.97882603 -16.13533932 0.97882603 0 0 Z " fill="#b59c5a" transform="translate(172.0283670425415,349.8769521713257)"/>
    <path d="M0 0 C39.93 0 79.86 0 121 0 C121 34.32 121 68.64 121 104 C81.07 104 41.14 104 0 104 C0 69.68 0 35.36 0 0 Z " fill="#b59c5a" transform="translate(564,224)"/>
    <path d="M0 0 C37.95 0 75.9 0 115 0 C115 34.32 115 68.64 115 104 C77.05 104 39.1 104 0 104 C0 69.68 0 35.36 0 0 Z " fill="#b59c5a" transform="translate(313,224)"/>
    <path d="M0 0 C11.57602062 3.90517359 22.76827222 8.50783559 33.86621094 13.60498047 C36.11121503 14.62960768 38.36710654 15.61994433 40.6328125 16.59765625 C60.10688675 25.16104321 78.59218963 36.90019561 95.66796875 49.51171875 C98.96268925 51.90171051 102.3790162 54.1203467 105.78515625 56.34765625 C106.30980469 56.81042969 106.83445312 57.27320313 107.375 57.75 C107.375 58.74 107.375 59.73 107.375 60.75 C26.525 60.75 -54.325 60.75 -137.625 60.75 C-137.625 59.76 -137.625 58.77 -137.625 57.75 C-135.7109375 56.09375 -135.7109375 56.09375 -133 54.25 C-128.52310096 51.11273571 -124.16265564 47.89129428 -119.875 44.5 C-119.29032959 44.03859619 -118.70565918 43.57719238 -118.10327148 43.10180664 C-113.10307494 39.14594209 -108.13303678 35.15244555 -103.16113281 31.16113281 C-98.66512075 27.56012781 -94.11689336 24.03455948 -89.53881836 20.53881836 C-85.3536368 17.33373116 -81.23313418 14.05308044 -77.125 10.75 C-71.30448104 6.0723295 -65.44458593 1.4557061 -59.484375 -3.04296875 C-57.7430769 -4.38700349 -56.03388617 -5.77600864 -54.390625 -7.23828125 C-42.29904272 -17.75795783 -13.31236118 -4.38388671 0 0 Z " fill="#b59c5a" transform="translate(609.625,141.25)"/>
    <path d="M0 0 C0 44.22 0 88.44 0 134 C-36.63 134 -73.26 134 -111 134 C-109.87180843 128.35904216 -107.79979716 124.37189426 -105.0625 119.375 C-104.27927368 117.94474487 -104.27927368 117.94474487 -103.48022461 116.4855957 C-83.06903861 80.00709013 -55.87506631 45.16077079 -24 18 C-22.98547169 17.12133085 -21.97116512 16.24240562 -20.95703125 15.36328125 C-3.13361673 0 -3.13361673 0 0 0 Z " fill="#b59c5a" transform="translate(292,194)"/>
    <path d="M0 0 C31.02 0 62.04 0 94 0 C94 24.75 94 49.5 94 75 C71.90174121 86.0491294 25.70818031 79.09000771 2 75 C1.34 74.67 0.68 74.34 0 74 C0 49.58 0 25.16 0 0 Z " fill="#b59c5a" transform="translate(449,798)"/>
    <path d="M0 0 C50.49 0 100.98 0 153 0 C153 0.99 153 1.98 153 3 C151.07658769 4.62964354 149.20363295 6.02926745 147.125 7.4375 C146.50004639 7.87070557 145.87509277 8.30391113 145.23120117 8.75024414 C143.16153347 10.17794215 141.08103572 11.58893545 139 13 C137.57679607 13.97912765 136.15361927 14.95829473 134.73046875 15.9375 C124.81073065 22.70593703 114.64114086 28.92453988 104.16210938 34.78759766 C102.25094973 35.85928 100.35138619 36.94869619 98.453125 38.04296875 C68.53561355 54.75955061 33.93174268 67.15260819 0 72 C0 48.24 0 24.48 0 0 Z " fill="#b59c5a" transform="translate(564,798)"/>
    <path d="M0 0 C47.85 0 95.7 0 145 0 C145 23.1 145 46.2 145 70 C134.84910486 68.87212276 134.84910486 68.87212276 129.83984375 67.46875 C128.72899414 67.15768311 127.61814453 66.84661621 126.47363281 66.52612305 C124.72324707 66.01819214 124.72324707 66.01819214 122.9375 65.5 C121.70741211 65.14397705 120.47732422 64.7879541 119.20996094 64.42114258 C81.12726539 53.16943707 46.60172769 35.48539247 14 13 C12.45861326 11.95401446 10.9169723 10.90840338 9.375 9.86328125 C8.08219986 8.97299787 6.79043037 8.08121481 5.5 7.1875 C4.4171875 6.43855469 3.334375 5.68960938 2.21875 4.91796875 C1.4865625 4.28503906 0.754375 3.65210938 0 3 C0 2.01 0 1.02 0 0 Z " fill="#b59c5a" transform="translate(283,798)"/>
    <path d="M0 0 C0 23.1 0 46.2 0 70 C-37.95 70 -75.9 70 -115 70 C-115 62.08 -115 54.16 -115 46 C-108.01332624 41.97456545 -101.01916323 37.96789461 -94 34 C-93.25943359 33.57944336 -92.51886719 33.15888672 -91.75585938 32.72558594 C-67.19515366 18.87904315 -40.30013859 9.2237622 -13.125 1.9375 C-12.36453369 1.73334473 -11.60406738 1.52918945 -10.82055664 1.31884766 C-7.01031616 0.34801326 -3.99111989 0 0 0 Z " fill="#b59c5a" transform="translate(428,132)"/>
    <path d="M0 0 C0.8495224 -0.00090637 1.6990448 -0.00181274 2.5743103 -0.00274658 C11.7202388 -0.00164335 20.78132399 0.08041056 29.875 1.1875 C29.875 2.1775 29.875 3.1675 29.875 4.1875 C27.6913368 6.17182465 25.52480899 7.96304574 23.1875 9.75 C22.50558594 10.28302734 21.82367187 10.81605469 21.12109375 11.36523438 C19.04665384 12.98275768 16.9625412 14.58693412 14.875 16.1875 C13.75385551 17.05071536 12.63275782 17.91399149 11.51171875 18.77734375 C9.93967128 19.98525569 8.36760424 21.19315034 6.79223633 22.39672852 C2.60518263 25.60151585 -1.51590306 28.88355332 -5.625 32.1875 C-11.31356193 36.7602873 -17.06198332 41.24206175 -22.859375 45.67578125 C-26.41071469 48.39768198 -29.9238077 51.16728734 -33.4375 53.9375 C-35.1559884 55.28737146 -36.87514659 56.63638272 -38.59472656 57.98486328 C-39.9595641 59.05748448 -41.31993961 60.13577776 -42.6796875 61.21484375 C-43.38351562 61.76269531 -44.08734375 62.31054688 -44.8125 62.875 C-45.68455078 63.56142578 -45.68455078 63.56142578 -46.57421875 64.26171875 C-48.125 65.1875 -48.125 65.1875 -51.125 65.1875 C-51.125 45.0575 -51.125 24.9275 -51.125 4.1875 C-34.0037587 0.76325174 -17.40135604 -0.00121502 0 0 Z " fill="#b59c5a" transform="translate(500.125,123.8125)"/>
    </svg>
